<svg xmlns="http://www.w3.org/2000/svg" width="70.617" height="70.617" viewBox="0 0 70.617 70.617">
  <g id="Check" transform="translate(-152.691 -175.691)">
    <circle id="Ellipse_137" data-name="Ellipse 137" cx="35.309" cy="35.309" r="35.309" transform="translate(152.691 175.691)" fill="#74c946" opacity="0.38"/>
    <path id="Union_2" data-name="Union 2" d="M1732.06-3015.358l-8.817-8.816a6,6,0,0,1,0-8.485,6,6,0,0,1,8.485,0l4.574,4.574,11.672-11.672a6,6,0,0,1,8.485,0,6,6,0,0,1,0,8.485l-15.914,15.914a5.982,5.982,0,0,1-4.243,1.758A5.98,5.98,0,0,1,1732.06-3015.358Z" transform="translate(-1551.354 3241.049)" fill="#74c946"/>
  </g>
</svg>
